<svg width="48" height="48" viewBox="0 0 48 48" fill="none" xmlns="http://www.w3.org/2000/svg">
<path d="M0 8C0 3.58172 3.58172 0 8 0H40C44.4183 0 48 3.58172 48 8V40C48 44.4183 44.4183 48 40 48H8C3.58172 48 0 44.4183 0 40V8Z" fill="white"/>
<path d="M29.3125 13.3125C29.3125 12.6042 29.5625 12 30.0625 11.5C30.6042 10.9583 31.25 10.6875 32 10.6875C32.75 10.6875 33.375 10.9583 33.875 11.5C34.4167 12 34.6875 12.6042 34.6875 13.3125C34.6875 14.0625 34.4167 14.7083 33.875 15.25C33.375 15.75 32.75 16 32 16C31.25 16 30.6042 15.75 30.0625 15.25C29.5625 14.7083 29.3125 14.0625 29.3125 13.3125ZM34.6875 37.3125V29.3125H38L34.625 19.1875C34.4167 18.6042 34.0833 18.1458 33.625 17.8125C33.1667 17.4792 32.6458 17.3125 32.0625 17.3125H31.9375C31.3542 17.3125 30.8333 17.4792 30.375 17.8125C29.9167 18.1458 29.5833 18.6042 29.375 19.1875L28.25 22.625C28.9583 23 29.5417 23.5625 30 24.3125C30.4583 25.0208 30.6875 25.8125 30.6875 26.6875V37.3125H34.6875ZM24.6875 23.3125C25.2292 23.3125 25.6875 23.125 26.0625 22.75C26.4792 22.375 26.6875 21.8958 26.6875 21.3125C26.6875 20.7708 26.4792 20.3125 26.0625 19.9375C25.6875 19.5208 25.2292 19.3125 24.6875 19.3125C24.1042 19.3125 23.625 19.5208 23.25 19.9375C22.875 20.3125 22.6875 20.7708 22.6875 21.3125C22.6875 21.8958 22.875 22.375 23.25 22.75C23.625 23.125 24.1042 23.3125 24.6875 23.3125ZM15.3125 16C16.0625 16 16.6875 15.75 17.1875 15.25C17.7292 14.7083 18 14.0625 18 13.3125C18 12.6042 17.7292 12 17.1875 11.5C16.6875 10.9583 16.0625 10.6875 15.3125 10.6875C14.6042 10.6875 13.9792 10.9583 13.4375 11.5C12.9375 12 12.6875 12.6042 12.6875 13.3125C12.6875 14.0625 12.9375 14.7083 13.4375 15.25C13.9792 15.75 14.6042 16 15.3125 16ZM18 37.3125V28H20V20C20 19.25 19.7292 18.625 19.1875 18.125C18.6875 17.5833 18.0625 17.3125 17.3125 17.3125H13.3125C12.6042 17.3125 11.9792 17.5833 11.4375 18.125C10.9375 18.625 10.6875 19.25 10.6875 20V28H12.6875V37.3125H18ZM26.6875 37.3125V32H28V26.6875C28 26.1458 27.7917 25.6875 27.375 25.3125C27 24.8958 26.5417 24.6875 26 24.6875H23.3125C22.7708 24.6875 22.2917 24.8958 21.875 25.3125C21.5 25.6875 21.3125 26.1458 21.3125 26.6875V32H22.6875V37.3125H26.6875Z" fill="#65665C"/>
</svg>
