<svg width="75" height="14" viewBox="0 0 75 14" fill="none" xmlns="http://www.w3.org/2000/svg">
<path d="M6.6582 6.91211H7.65625C7.65625 7.6276 7.45117 8.16536 7.04102 8.52539C6.63542 8.88086 6.08398 9.05859 5.38672 9.05859C4.90365 9.05859 4.48438 8.94694 4.12891 8.72363C3.77799 8.50033 3.50456 8.19043 3.30859 7.79395C3.11719 7.39746 3.02148 6.93717 3.02148 6.41309V5.62695C3.02148 5.10286 3.11719 4.64258 3.30859 4.24609C3.50456 3.84961 3.77799 3.53971 4.12891 3.31641C4.48438 3.0931 4.90365 2.98145 5.38672 2.98145C6.08398 2.98145 6.6377 3.15918 7.04785 3.51465C7.45801 3.87012 7.66309 4.4056 7.66309 5.12109H6.66504C6.66504 4.66992 6.55566 4.34635 6.33691 4.15039C6.12272 3.95443 5.80599 3.85645 5.38672 3.85645C5.08594 3.85645 4.83301 3.93164 4.62793 4.08203C4.42285 4.23242 4.2679 4.44206 4.16309 4.71094C4.05827 4.97526 4.00586 5.27832 4.00586 5.62012V6.41309C4.00586 6.75944 4.05827 7.06706 4.16309 7.33594C4.2679 7.60026 4.42285 7.80762 4.62793 7.95801C4.83301 8.1084 5.08594 8.18359 5.38672 8.18359C5.80599 8.18359 6.12272 8.08561 6.33691 7.88965C6.55111 7.69368 6.6582 7.36784 6.6582 6.91211ZM1.41504 6.0166C1.41504 6.62272 1.51986 7.18783 1.72949 7.71191C1.93913 8.236 2.23079 8.69401 2.60449 9.08594C2.97819 9.47786 3.41113 9.7832 3.90332 10.002C4.39551 10.2207 4.92188 10.3301 5.48242 10.3301C6.04297 10.3301 6.56706 10.2207 7.05469 10.002C7.54688 9.7832 7.97754 9.47786 8.34668 9.08594C8.72038 8.69401 9.01204 8.236 9.22168 7.71191C9.43132 7.18783 9.53613 6.62272 9.53613 6.0166C9.53613 5.40592 9.43132 4.84082 9.22168 4.32129C9.01204 3.80176 8.72038 3.34831 8.34668 2.96094C7.97754 2.56901 7.54688 2.26595 7.05469 2.05176C6.56706 1.83301 6.04297 1.72363 5.48242 1.72363C4.92188 1.72363 4.39551 1.83301 3.90332 2.05176C3.41113 2.26595 2.97819 2.56901 2.60449 2.96094C2.23079 3.34831 1.93913 3.80176 1.72949 4.32129C1.51986 4.84082 1.41504 5.40592 1.41504 6.0166ZM0.628906 6.0166C0.628906 5.29199 0.754232 4.61979 1.00488 4C1.25553 3.38021 1.60417 2.84017 2.05078 2.37988C2.4974 1.91504 3.01237 1.55501 3.5957 1.2998C4.18359 1.04004 4.8125 0.910156 5.48242 0.910156C6.15234 0.910156 6.77897 1.04004 7.3623 1.2998C7.9502 1.55501 8.46517 1.91504 8.90723 2.37988C9.35384 2.84017 9.70247 3.38021 9.95312 4C10.2038 4.61979 10.3291 5.29199 10.3291 6.0166C10.3291 6.74121 10.2038 7.41341 9.95312 8.0332C9.70247 8.65299 9.35384 9.19759 8.90723 9.66699C8.46517 10.1318 7.9502 10.4941 7.3623 10.7539C6.77897 11.0137 6.15234 11.1436 5.48242 11.1436C4.8125 11.1436 4.18359 11.0137 3.5957 10.7539C3.01237 10.4941 2.4974 10.1318 2.05078 9.66699C1.60417 9.19759 1.25553 8.65299 1.00488 8.0332C0.754232 7.41341 0.628906 6.74121 0.628906 6.0166ZM15.6338 1.04688H18.9287C19.6761 1.04688 20.3073 1.16081 20.8223 1.38867C21.3418 1.61654 21.736 1.95378 22.0049 2.40039C22.2783 2.84245 22.415 3.38704 22.415 4.03418C22.415 4.48991 22.3216 4.9069 22.1348 5.28516C21.9525 5.65885 21.6882 5.97786 21.3418 6.24219C21 6.50195 20.5898 6.69564 20.1113 6.82324L19.7422 6.9668H16.6455L16.6318 5.89355H18.9697C19.4437 5.89355 19.8379 5.81152 20.1523 5.64746C20.4668 5.47884 20.7038 5.25326 20.8633 4.9707C21.0228 4.68815 21.1025 4.37598 21.1025 4.03418C21.1025 3.65137 21.0273 3.31641 20.877 3.0293C20.7266 2.74219 20.4896 2.52116 20.166 2.36621C19.847 2.20671 19.4346 2.12695 18.9287 2.12695H16.9531V11H15.6338V1.04688ZM21.4512 11L19.0312 6.48828L20.4053 6.48145L22.8594 10.918V11H21.4512ZM27.1387 11.1367C26.6237 11.1367 26.1566 11.0501 25.7373 10.877C25.3226 10.6992 24.9648 10.4508 24.6641 10.1318C24.3678 9.81283 24.14 9.43457 23.9805 8.99707C23.821 8.55957 23.7412 8.08105 23.7412 7.56152V7.27441C23.7412 6.67285 23.8301 6.13737 24.0078 5.66797C24.1855 5.19401 24.4271 4.79297 24.7324 4.46484C25.0378 4.13672 25.3841 3.88835 25.7715 3.71973C26.1589 3.55111 26.5599 3.4668 26.9746 3.4668C27.5033 3.4668 27.959 3.55794 28.3418 3.74023C28.7292 3.92253 29.0459 4.17773 29.292 4.50586C29.5381 4.82943 29.7204 5.21224 29.8389 5.6543C29.9574 6.0918 30.0166 6.57031 30.0166 7.08984V7.65723H24.4932V6.625H28.752V6.5293C28.7337 6.20117 28.6654 5.88216 28.5469 5.57227C28.4329 5.26237 28.2507 5.00716 28 4.80664C27.7493 4.60612 27.4076 4.50586 26.9746 4.50586C26.6875 4.50586 26.4232 4.56738 26.1816 4.69043C25.9401 4.80892 25.7327 4.98665 25.5596 5.22363C25.3864 5.46061 25.252 5.75 25.1562 6.0918C25.0605 6.43359 25.0127 6.8278 25.0127 7.27441V7.56152C25.0127 7.91243 25.0605 8.24284 25.1562 8.55273C25.2565 8.85807 25.4001 9.12695 25.5869 9.35938C25.7783 9.5918 26.0085 9.77409 26.2773 9.90625C26.5508 10.0384 26.8607 10.1045 27.207 10.1045C27.6536 10.1045 28.0319 10.0133 28.3418 9.83105C28.6517 9.64876 28.9229 9.40495 29.1553 9.09961L29.9209 9.70801C29.7614 9.94954 29.5586 10.1797 29.3125 10.3984C29.0664 10.6172 28.7633 10.7949 28.4033 10.9316C28.0479 11.0684 27.6263 11.1367 27.1387 11.1367ZM35.8545 9.73535V5.92773C35.8545 5.63607 35.7952 5.38314 35.6768 5.16895C35.5628 4.9502 35.3896 4.78158 35.1572 4.66309C34.9248 4.5446 34.6377 4.48535 34.2959 4.48535C33.9769 4.48535 33.6966 4.54004 33.4551 4.64941C33.2181 4.75879 33.0312 4.90234 32.8945 5.08008C32.7624 5.25781 32.6963 5.44922 32.6963 5.6543H31.4316C31.4316 5.38997 31.5 5.12793 31.6367 4.86816C31.7734 4.6084 31.9694 4.3737 32.2246 4.16406C32.4844 3.94987 32.7943 3.78125 33.1543 3.6582C33.5189 3.5306 33.9245 3.4668 34.3711 3.4668C34.9089 3.4668 35.3828 3.55794 35.793 3.74023C36.2077 3.92253 36.5312 4.19824 36.7637 4.56738C37.0007 4.93197 37.1191 5.38997 37.1191 5.94141V9.38672C37.1191 9.63281 37.1396 9.89486 37.1807 10.1729C37.2262 10.4508 37.2923 10.6901 37.3789 10.8906V11H36.0596C35.9958 10.8542 35.9456 10.6605 35.9092 10.4189C35.8727 10.1729 35.8545 9.94499 35.8545 9.73535ZM36.0732 6.51562L36.0869 7.4043H34.8086C34.4486 7.4043 34.1273 7.43392 33.8447 7.49316C33.5622 7.54785 33.3252 7.63216 33.1338 7.74609C32.9424 7.86003 32.7965 8.00358 32.6963 8.17676C32.596 8.34538 32.5459 8.54362 32.5459 8.77148C32.5459 9.00391 32.5983 9.21582 32.7031 9.40723C32.8079 9.59863 32.9652 9.7513 33.1748 9.86523C33.389 9.97461 33.651 10.0293 33.9609 10.0293C34.3483 10.0293 34.6901 9.94727 34.9863 9.7832C35.2826 9.61914 35.5173 9.41862 35.6904 9.18164C35.8682 8.94466 35.9639 8.71452 35.9775 8.49121L36.5176 9.09961C36.4857 9.29102 36.3991 9.50293 36.2578 9.73535C36.1165 9.96777 35.9274 10.1911 35.6904 10.4053C35.458 10.6149 35.18 10.7904 34.8564 10.9316C34.5374 11.0684 34.1774 11.1367 33.7764 11.1367C33.2751 11.1367 32.8353 11.0387 32.457 10.8428C32.0833 10.6468 31.7917 10.3848 31.582 10.0566C31.377 9.72396 31.2744 9.35254 31.2744 8.94238C31.2744 8.5459 31.3519 8.19727 31.5068 7.89648C31.6618 7.59115 31.8851 7.33822 32.1768 7.1377C32.4684 6.93262 32.8193 6.77767 33.2295 6.67285C33.6396 6.56803 34.0977 6.51562 34.6035 6.51562H36.0732ZM40.4824 0.5V11H39.2109V0.5H40.4824ZM45.4727 10.0977C45.7734 10.0977 46.0514 10.0361 46.3066 9.91309C46.5618 9.79004 46.7715 9.62142 46.9355 9.40723C47.0996 9.18848 47.193 8.9401 47.2158 8.66211H48.4189C48.3962 9.09961 48.248 9.50749 47.9746 9.88574C47.7057 10.2594 47.3525 10.5625 46.915 10.7949C46.4775 11.0228 45.9967 11.1367 45.4727 11.1367C44.9167 11.1367 44.4313 11.0387 44.0166 10.8428C43.6064 10.6468 43.2646 10.3779 42.9912 10.0361C42.7223 9.69434 42.5195 9.30241 42.3828 8.86035C42.2507 8.41374 42.1846 7.94206 42.1846 7.44531V7.1582C42.1846 6.66146 42.2507 6.19206 42.3828 5.75C42.5195 5.30339 42.7223 4.90918 42.9912 4.56738C43.2646 4.22559 43.6064 3.95671 44.0166 3.76074C44.4313 3.56478 44.9167 3.4668 45.4727 3.4668C46.0514 3.4668 46.5573 3.58529 46.9902 3.82227C47.4232 4.05469 47.7627 4.3737 48.0088 4.7793C48.2594 5.18034 48.3962 5.63607 48.4189 6.14648H47.2158C47.193 5.84115 47.1064 5.56543 46.9561 5.31934C46.8102 5.07324 46.6097 4.87728 46.3545 4.73145C46.1038 4.58105 45.8099 4.50586 45.4727 4.50586C45.0853 4.50586 44.7594 4.58333 44.4951 4.73828C44.2354 4.88867 44.028 5.09375 43.873 5.35352C43.7227 5.60872 43.6133 5.89355 43.5449 6.20801C43.4811 6.5179 43.4492 6.83464 43.4492 7.1582V7.44531C43.4492 7.76888 43.4811 8.08789 43.5449 8.40234C43.6087 8.7168 43.7158 9.00163 43.8662 9.25684C44.0212 9.51204 44.2285 9.71712 44.4883 9.87207C44.7526 10.0225 45.0807 10.0977 45.4727 10.0977ZM49.5059 7.38379V7.22656C49.5059 6.69336 49.5833 6.19889 49.7383 5.74316C49.8932 5.28288 50.1165 4.88411 50.4082 4.54688C50.6999 4.20508 51.0531 3.94076 51.4678 3.75391C51.8825 3.5625 52.3473 3.4668 52.8623 3.4668C53.3818 3.4668 53.849 3.5625 54.2637 3.75391C54.6829 3.94076 55.0384 4.20508 55.3301 4.54688C55.6263 4.88411 55.8519 5.28288 56.0068 5.74316C56.1618 6.19889 56.2393 6.69336 56.2393 7.22656V7.38379C56.2393 7.91699 56.1618 8.41146 56.0068 8.86719C55.8519 9.32292 55.6263 9.72168 55.3301 10.0635C55.0384 10.4007 54.6852 10.665 54.2705 10.8564C53.8604 11.0433 53.3955 11.1367 52.876 11.1367C52.3564 11.1367 51.8893 11.0433 51.4746 10.8564C51.0599 10.665 50.7044 10.4007 50.4082 10.0635C50.1165 9.72168 49.8932 9.32292 49.7383 8.86719C49.5833 8.41146 49.5059 7.91699 49.5059 7.38379ZM50.7705 7.22656V7.38379C50.7705 7.75293 50.8138 8.10156 50.9004 8.42969C50.987 8.75326 51.1169 9.04036 51.29 9.29102C51.4678 9.54167 51.6888 9.73991 51.9531 9.88574C52.2174 10.027 52.5251 10.0977 52.876 10.0977C53.2223 10.0977 53.5254 10.027 53.7852 9.88574C54.0495 9.73991 54.2682 9.54167 54.4414 9.29102C54.6146 9.04036 54.7445 8.75326 54.8311 8.42969C54.9222 8.10156 54.9678 7.75293 54.9678 7.38379V7.22656C54.9678 6.86198 54.9222 6.5179 54.8311 6.19434C54.7445 5.86621 54.6123 5.57682 54.4346 5.32617C54.2614 5.07096 54.0426 4.87044 53.7783 4.72461C53.5186 4.57878 53.2132 4.50586 52.8623 4.50586C52.516 4.50586 52.2106 4.57878 51.9463 4.72461C51.6865 4.87044 51.4678 5.07096 51.29 5.32617C51.1169 5.57682 50.987 5.86621 50.9004 6.19434C50.8138 6.5179 50.7705 6.86198 50.7705 7.22656ZM61.291 0.5H62.5625V9.56445L62.4531 11H61.291V0.5ZM67.5596 7.24023V7.38379C67.5596 7.92155 67.4958 8.42057 67.3682 8.88086C67.2406 9.33659 67.0537 9.73307 66.8076 10.0703C66.5615 10.4076 66.2607 10.6696 65.9053 10.8564C65.5498 11.0433 65.1419 11.1367 64.6816 11.1367C64.2122 11.1367 63.7998 11.057 63.4443 10.8975C63.0934 10.7334 62.7972 10.4987 62.5557 10.1934C62.3141 9.88802 62.1204 9.51888 61.9746 9.08594C61.8333 8.65299 61.7354 8.16536 61.6807 7.62305V6.99414C61.7354 6.44727 61.8333 5.95736 61.9746 5.52441C62.1204 5.09147 62.3141 4.72233 62.5557 4.41699C62.7972 4.1071 63.0934 3.8724 63.4443 3.71289C63.7952 3.54883 64.2031 3.4668 64.668 3.4668C65.1328 3.4668 65.5452 3.55794 65.9053 3.74023C66.2653 3.91797 66.5661 4.17318 66.8076 4.50586C67.0537 4.83854 67.2406 5.2373 67.3682 5.70215C67.4958 6.16243 67.5596 6.67513 67.5596 7.24023ZM66.2881 7.38379V7.24023C66.2881 6.87109 66.2539 6.52474 66.1855 6.20117C66.1172 5.87305 66.0078 5.58594 65.8574 5.33984C65.707 5.08919 65.5088 4.89323 65.2627 4.75195C65.0166 4.60612 64.7135 4.5332 64.3535 4.5332C64.0345 4.5332 63.7565 4.58789 63.5195 4.69727C63.2871 4.80664 63.0889 4.95475 62.9248 5.1416C62.7607 5.32389 62.6263 5.53353 62.5215 5.77051C62.4212 6.00293 62.346 6.24447 62.2959 6.49512V8.14258C62.3688 8.46159 62.4873 8.76921 62.6514 9.06543C62.82 9.3571 63.0433 9.59635 63.3213 9.7832C63.6038 9.97005 63.9525 10.0635 64.3672 10.0635C64.709 10.0635 65.0007 9.99512 65.2422 9.8584C65.4883 9.71712 65.6865 9.52344 65.8369 9.27734C65.9919 9.03125 66.1058 8.74642 66.1787 8.42285C66.2516 8.09928 66.2881 7.75293 66.2881 7.38379ZM71.1553 10.2344L73.2129 3.60352H74.5664L71.5996 12.1416C71.5312 12.3239 71.4401 12.5199 71.3262 12.7295C71.2168 12.9437 71.0755 13.1465 70.9023 13.3379C70.7292 13.5293 70.5195 13.6842 70.2734 13.8027C70.0319 13.9258 69.7425 13.9873 69.4053 13.9873C69.305 13.9873 69.1774 13.9736 69.0225 13.9463C68.8675 13.9189 68.7581 13.8962 68.6943 13.8779L68.6875 12.8525C68.724 12.8571 68.7809 12.8617 68.8584 12.8662C68.9404 12.8753 68.9974 12.8799 69.0293 12.8799C69.3164 12.8799 69.5602 12.8411 69.7607 12.7637C69.9613 12.6908 70.1299 12.5654 70.2666 12.3877C70.4079 12.2145 70.5286 11.9753 70.6289 11.6699L71.1553 10.2344ZM69.6445 3.60352L71.5654 9.3457L71.8936 10.6787L70.9844 11.1436L68.2637 3.60352H69.6445Z" fill="#65665C"/>
</svg>
