<svg width="14" height="14" viewBox="0 0 14 14" fill="none" xmlns="http://www.w3.org/2000/svg">
<path d="M12.3438 7.65625H13.6562V11.6562C13.6562 12.0104 13.5208 12.3229 13.25 12.5938C13 12.8646 12.6979 13 12.3438 13C12.3438 13.1875 12.2708 13.3438 12.125 13.4688C12 13.5938 11.8438 13.6562 11.6562 13.6562H2.34375C2.15625 13.6562 1.98958 13.5938 1.84375 13.4688C1.71875 13.3438 1.65625 13.1875 1.65625 13C1.30208 13 0.989583 12.8646 0.71875 12.5938C0.46875 12.3229 0.34375 12.0104 0.34375 11.6562V7.65625H2.34375V7.15625C2.34375 6.76042 2.48958 6.41667 2.78125 6.125C3.09375 5.8125 3.44792 5.65625 3.84375 5.65625C4.26042 5.65625 4.63542 5.82292 4.96875 6.15625L5.875 7.1875C6 7.33333 6.1875 7.48958 6.4375 7.65625H11V2.21875C11 2.07292 10.9479 1.94792 10.8438 1.84375C10.7396 1.71875 10.6042 1.65625 10.4375 1.65625C10.2917 1.65625 10.1667 1.70833 10.0625 1.8125L9.21875 2.65625C9.26042 2.82292 9.28125 2.9375 9.28125 3C9.28125 3.22917 9.20833 3.46875 9.0625 3.71875L7.21875 1.875C7.46875 1.72917 7.70833 1.65625 7.9375 1.65625C8.04167 1.65625 8.15625 1.67708 8.28125 1.71875L9.125 0.875C9.47917 0.520833 9.91667 0.34375 10.4375 0.34375C10.9583 0.34375 11.4062 0.53125 11.7812 0.90625C12.1562 1.26042 12.3438 1.69792 12.3438 2.21875V7.65625ZM2.71875 4.625C2.46875 4.35417 2.34375 4.03125 2.34375 3.65625C2.34375 3.28125 2.46875 2.96875 2.71875 2.71875C2.96875 2.46875 3.28125 2.34375 3.65625 2.34375C4.03125 2.34375 4.34375 2.46875 4.59375 2.71875C4.86458 2.96875 5 3.28125 5 3.65625C5 4.03125 4.86458 4.35417 4.59375 4.625C4.34375 4.875 4.03125 5 3.65625 5C3.28125 5 2.96875 4.875 2.71875 4.625Z" fill="#65665C"/>
</svg>
