<svg width="12" height="12" viewBox="0 0 12 12" fill="none" xmlns="http://www.w3.org/2000/svg">
<path d="M2.65625 9.34375H6.5L2.65625 5.5V9.34375ZM9.78125 9.78125L11.3438 11.3438H2C1.64583 11.3438 1.33333 11.2083 1.0625 10.9375C0.791667 10.6667 0.65625 10.3542 0.65625 10V0.65625L2.21875 2.21875L1.53125 2.9375L2 3.40625L2.6875 2.6875L4 4L3.28125 4.6875L3.75 5.1875L4.46875 4.46875L5.78125 5.78125L5.0625 6.46875L5.53125 6.9375L6.25 6.25L7.53125 7.53125L6.8125 8.25L7.3125 8.71875L8 8L9.3125 9.3125L8.59375 10L9.0625 10.4688L9.78125 9.78125Z" fill="#65665C"/>
</svg>
