<svg width="14" height="10" viewBox="0 0 14 10" fill="none" xmlns="http://www.w3.org/2000/svg">
<path d="M13 4.1875V2.34375C13 1.96875 12.9062 1.63542 12.7188 1.34375C12.5521 1.03125 12.3125 0.791667 12 0.625C11.7083 0.4375 11.375 0.34375 11 0.34375H8.34375C8.07292 0.34375 7.82292 0.395833 7.59375 0.5C7.36458 0.583333 7.16667 0.697917 7 0.84375C6.83333 0.697917 6.63542 0.583333 6.40625 0.5C6.17708 0.395833 5.92708 0.34375 5.65625 0.34375H3C2.625 0.34375 2.28125 0.4375 1.96875 0.625C1.67708 0.791667 1.4375 1.03125 1.25 1.34375C1.08333 1.63542 1 1.96875 1 2.34375V4.1875C0.791667 4.375 0.625 4.59375 0.5 4.84375C0.395833 5.09375 0.34375 5.36458 0.34375 5.65625V9.65625H1.65625V8.34375H12.3438V9.65625H13.6562V5.65625C13.6562 5.36458 13.5938 5.09375 13.4688 4.84375C13.3646 4.59375 13.2083 4.375 13 4.1875ZM8.34375 1.65625H11C11.1875 1.65625 11.3438 1.72917 11.4688 1.875C11.5938 2 11.6562 2.15625 11.6562 2.34375V3.65625H7.65625V2.34375C7.65625 2.15625 7.71875 2 7.84375 1.875C7.98958 1.72917 8.15625 1.65625 8.34375 1.65625ZM2.34375 2.34375C2.34375 2.15625 2.40625 2 2.53125 1.875C2.65625 1.72917 2.8125 1.65625 3 1.65625H5.65625C5.84375 1.65625 6 1.72917 6.125 1.875C6.27083 2 6.34375 2.15625 6.34375 2.34375V3.65625H2.34375V2.34375ZM1.65625 7V5.65625C1.65625 5.48958 1.71875 5.34375 1.84375 5.21875C1.98958 5.07292 2.15625 5 2.34375 5H11.6562C11.8438 5 12 5.07292 12.125 5.21875C12.2708 5.34375 12.3438 5.48958 12.3438 5.65625V7H1.65625Z" fill="#65665C"/>
</svg>
