<svg width="120" height="28" viewBox="0 0 120 28" fill="none" xmlns="http://www.w3.org/2000/svg">
<path d="M34.2281 8.64267H37.2375V20.776H34.2281V8.64267ZM38.4375 16.212C38.4375 13.2067 40.3125 11.4053 43.125 11.4053C45.9375 11.4053 47.8125 13.2067 47.8125 16.212C47.8125 19.2173 46.0032 21.0373 43.125 21.0373C40.2469 21.0373 38.4375 19.2827 38.4375 16.212ZM44.8313 16.212C44.8313 14.56 44.1844 13.5893 43.1532 13.5893C42.1219 13.5893 41.4844 14.5227 41.4844 16.212C41.4844 17.9013 42.1219 18.8253 43.1532 18.8253C44.1844 18.8253 44.85 17.9013 44.85 16.2213L44.8313 16.212ZM49.0125 21.4013H51.9188C52.0511 21.7128 52.2822 21.9727 52.5767 22.1412C52.8713 22.3098 53.2131 22.3777 53.55 22.3347C54.7032 22.3347 55.3032 21.7187 55.3032 20.804V19.124H55.3125C55.0642 19.6471 54.6626 20.0831 54.1606 20.3747C53.6586 20.6663 53.0797 20.7996 52.5 20.7573C50.2969 20.7573 48.8344 19.0867 48.8344 16.212C48.8344 13.3373 50.2313 11.5453 52.5844 11.5453C53.1789 11.5137 53.7687 11.6663 54.2723 11.9822C54.776 12.2982 55.1689 12.7619 55.3969 13.3093H55.3125V11.62H58.2938V20.7107C58.2938 22.904 56.3438 24.276 53.475 24.276C50.8688 24.2667 49.2 23.0813 49.0313 21.4107L49.0125 21.4013ZM55.3125 16.212C55.3125 14.7467 54.6375 13.8227 53.5688 13.8227C52.5 13.8227 51.8438 14.756 51.8438 16.212C51.8438 17.668 52.4907 18.5267 53.5688 18.5267C54.6469 18.5267 55.3125 17.7333 55.3125 16.212ZM59.4844 16.212C59.4844 13.2067 61.3594 11.4053 64.1719 11.4053C66.9844 11.4053 68.8594 13.2067 68.8594 16.212C68.8594 19.2173 67.0407 21.0373 64.1719 21.0373C61.3031 21.0373 59.5032 19.2827 59.5032 16.212H59.4844ZM65.8781 16.212C65.8781 14.56 65.2219 13.5893 64.2 13.5893C63.1782 13.5893 62.5313 14.5227 62.5313 16.212C62.5313 17.9013 63.1688 18.8253 64.2 18.8253C65.2313 18.8253 65.8969 17.9013 65.8969 16.2213L65.8781 16.212ZM70.0782 9.40802C70.065 9.10282 70.144 8.80072 70.3047 8.54057C70.4655 8.2804 70.7008 8.07409 70.9804 7.94815C71.26 7.82222 71.5709 7.78243 71.8734 7.8339C72.1758 7.88538 72.4558 8.02576 72.6775 8.23699C72.8991 8.44823 73.0522 8.72065 73.1171 9.01921C73.1818 9.31777 73.1555 9.62884 73.0413 9.9123C72.9271 10.1958 72.7303 10.4389 72.4763 10.6101C72.2222 10.7814 71.9225 10.8731 71.6157 10.8733C71.4196 10.8783 71.2244 10.8444 71.0416 10.7738C70.8588 10.703 70.6918 10.5968 70.5506 10.4614C70.4093 10.3259 70.2964 10.1639 70.2186 9.98463C70.1407 9.80543 70.0993 9.6126 70.0969 9.41735L70.0782 9.40802ZM70.0782 11.6107H73.125V20.8133H70.125L70.0782 11.6107ZM84.0844 16.212C84.0844 19.208 82.7344 20.944 80.4375 20.944C79.8495 20.9801 79.2645 20.8357 78.7616 20.5303C78.2586 20.2248 77.8619 19.7731 77.625 19.236H77.5688V23.772H74.5594V11.6387H77.55V13.2813H77.6063C77.835 12.7338 78.2278 12.2696 78.7311 11.9523C79.2344 11.6349 79.8237 11.4798 80.4188 11.508C82.7813 11.4893 84.1407 13.216 84.1407 16.2213L84.0844 16.212ZM81.0188 16.212C81.0188 14.756 80.3344 13.8133 79.275 13.8133C78.2157 13.8133 77.55 14.7467 77.5407 16.212C77.5313 17.6773 78.2157 18.6013 79.275 18.6013C80.3344 18.6013 81.075 17.7333 81.075 16.2213L81.0188 16.212ZM89.2219 11.396C91.7438 11.396 93.3094 12.5813 93.3282 14.4853H90.5813C90.5813 13.8227 90.0282 13.412 89.2032 13.412C88.3782 13.412 87.9844 13.7293 87.9844 14.2053C87.9844 14.6813 88.3313 14.8307 89.025 14.9707L90.9563 15.3627C92.8313 15.7547 93.5813 16.5013 93.5813 17.892C93.5813 19.7587 91.8469 21.028 89.2688 21.028C86.6907 21.028 85.0125 19.796 84.8907 17.92H87.8063C87.8907 18.6013 88.4344 19.0027 89.3157 19.0027C90.1969 19.0027 90.6094 18.7227 90.6094 18.228C90.6094 17.7333 90.3282 17.6493 89.6063 17.5L87.8625 17.136C86.0532 16.7533 85.1063 15.8107 85.1063 14.4013C85.1625 12.572 86.7375 11.4053 89.2782 11.4053L89.2219 11.396ZM103.659 20.804H100.744V19.0773H100.688C100.524 19.6533 100.169 20.1567 99.6797 20.5044C99.1903 20.8523 98.5969 21.0237 97.9969 20.9907C97.5441 21.0053 97.0922 20.9245 96.6732 20.7533C96.2541 20.5823 95.8753 20.3247 95.5631 19.9978C95.25 19.6708 95.011 19.2817 94.86 18.8561C94.7091 18.4305 94.65 17.9778 94.6875 17.528V11.62H97.6969V16.884C97.6969 17.9667 98.2688 18.5547 99.2063 18.5547C99.4266 18.553 99.6432 18.5044 99.8428 18.4122C100.043 18.3199 100.22 18.186 100.362 18.0197C100.506 17.8534 100.612 17.6584 100.673 17.448C100.733 17.2376 100.748 17.0166 100.716 16.8V11.62H103.716L103.659 20.804ZM105.113 11.6107H108.038V13.384H108.103C108.264 12.8159 108.611 12.3172 109.088 11.9659C109.565 11.6147 110.145 11.4306 110.738 11.4427C111.333 11.3912 111.926 11.5625 112.401 11.9233C112.876 12.284 113.198 12.8082 113.306 13.3933H113.438C113.625 12.8051 114.002 12.2949 114.511 11.9422C115.019 11.5894 115.631 11.4138 116.25 11.4427C116.662 11.4271 117.072 11.4982 117.454 11.6514C117.836 11.8044 118.181 12.0362 118.467 12.3314C118.753 12.6265 118.973 12.9785 119.112 13.3641C119.253 13.7498 119.309 14.1605 119.278 14.5693V20.8133H116.25V15.3347C116.25 14.4013 115.809 13.8787 114.956 13.8787C114.767 13.8756 114.579 13.9133 114.406 13.9891C114.233 14.065 114.079 14.1773 113.953 14.3182C113.828 14.4592 113.734 14.6254 113.678 14.8058C113.624 14.9861 113.609 15.176 113.634 15.3627V20.8133H110.766V15.3067C110.766 14.3733 110.306 13.8787 109.481 13.8787C109.29 13.8772 109.101 13.9164 108.926 13.9937C108.751 14.071 108.595 14.1846 108.468 14.327C108.341 14.4693 108.247 14.637 108.19 14.8188C108.133 15.0007 108.116 15.1925 108.141 15.3813V20.8133H105.131L105.113 11.6107Z" fill="#737680"/>
<path d="M28.275 9.43598C28.2751 7.57834 27.7117 5.76399 26.6585 4.23058C25.6053 2.69717 24.1114 1.51618 22.3726 0.84231C20.6338 0.168438 18.7311 0.0331031 16.9137 0.454029C15.0963 0.874955 13.449 1.83251 12.1875 3.20129H0.487549V27.7853H25.1907V16.296C26.1602 15.4326 26.9361 14.3754 27.4676 13.1934C27.999 12.0113 28.2742 10.731 28.275 9.43598ZM23.5219 9.43598C23.5238 10.3261 23.2603 11.1968 22.765 11.9378C22.2695 12.6788 21.5645 13.2569 20.7389 13.5988C19.9134 13.9407 19.0046 14.0312 18.1273 13.8587C17.2502 13.6861 16.4442 13.2584 15.8112 12.6297C15.1783 12.0009 14.7471 11.1993 14.572 10.3264C14.3968 9.45343 14.4858 8.54845 14.8275 7.72589C15.1692 6.90331 15.7484 6.20017 16.4917 5.70544C17.235 5.2107 18.1091 4.94663 19.0032 4.94662C20.2 4.94662 21.3479 5.4193 22.1951 6.26095C23.0423 7.10259 23.5195 8.24445 23.5219 9.43598ZM20.4375 23.0533H5.24067V7.93329H9.8719C9.78247 8.42932 9.7354 8.93201 9.73128 9.43598C9.73381 11.8834 10.7114 14.2298 12.4497 15.9603C14.188 17.6908 16.5448 18.6641 19.0032 18.6666C19.4838 18.6641 19.9634 18.6235 20.4375 18.5453V23.0533Z" fill="#737680"/>
</svg>
