<svg width="120" height="28" viewBox="0 0 120 28" fill="none" xmlns="http://www.w3.org/2000/svg">
<path d="M28.9107 6.76666H31.6799V20.2533H28.9107V6.76666Z" fill="#737680"/>
<path d="M33.2308 15.6334C33.2308 14.6631 33.5157 13.7145 34.0495 12.9081C34.5832 12.1017 35.3417 11.4738 36.2289 11.1037C37.116 10.7336 38.0918 10.6382 39.0326 10.8297C39.9734 11.021 40.8369 11.4905 41.5135 12.1785C42.1901 12.8666 42.6495 13.7423 42.8333 14.6947C43.0172 15.647 42.9173 16.6331 42.5462 17.5279C42.1751 18.4228 41.5497 19.1862 40.7492 19.7212C39.9486 20.2563 39.0089 20.5389 38.0493 20.5334C37.4128 20.5384 36.7817 20.4148 36.193 20.17C35.6043 19.9252 35.0699 19.564 34.6211 19.1076C34.1723 18.6513 33.8182 18.1088 33.5794 17.5122C33.3407 16.9157 33.2221 16.2769 33.2308 15.6334ZM40.1723 15.6334C40.1614 15.215 40.0288 14.8092 39.791 14.4667C39.5532 14.1242 39.2208 13.8602 38.8354 13.7077C38.4501 13.5552 38.0288 13.5209 37.6242 13.6092C37.2197 13.6976 36.8499 13.9045 36.5611 14.2042C36.2722 14.504 36.0772 14.8831 36.0004 15.2944C35.9236 15.7055 35.9684 16.1305 36.1292 16.5161C36.29 16.9017 36.5596 17.2308 36.9044 17.4622C37.2492 17.6937 37.6538 17.8172 38.0677 17.8174C38.3494 17.8229 38.6294 17.7696 38.8899 17.6608C39.1504 17.5521 39.3859 17.3902 39.5817 17.1851C39.7774 16.9802 39.9293 16.7366 40.0278 16.4695C40.1262 16.2026 40.1691 15.9178 40.1539 15.6334H40.1723Z" fill="#737680"/>
<path d="M53.8246 11.0133V19.796C53.8246 22.8947 51.4246 24.2107 48.9969 24.2107C48.1407 24.2817 47.2817 24.1097 46.5169 23.7139C45.752 23.3182 45.1116 22.7144 44.6677 21.9707L47.0031 20.608C47.1924 20.9937 47.4934 21.3121 47.8661 21.5205C48.2388 21.7289 48.6654 21.8176 49.0892 21.7747C49.3592 21.8083 49.6332 21.7812 49.8917 21.6952C50.15 21.6094 50.3864 21.4668 50.5841 21.2778C50.7816 21.0887 50.9354 20.8578 51.0344 20.6016C51.1335 20.3455 51.1753 20.0704 51.1569 19.796V18.9467C50.8347 19.3417 50.4258 19.6553 49.9627 19.8627C49.4996 20.0701 48.9952 20.1655 48.4892 20.1413C47.2651 20.1413 46.0913 19.6496 45.2257 18.7745C44.3601 17.8993 43.8738 16.7124 43.8738 15.4747C43.8738 14.237 44.3601 13.05 45.2257 12.1749C46.0913 11.2997 47.2651 10.808 48.4892 10.808C48.9952 10.7838 49.4996 10.8792 49.9627 11.0866C50.4258 11.2939 50.8347 11.6076 51.1569 12.0027V11.0693L53.8246 11.0133ZM51.1569 15.4467C51.1754 15.0002 51.0613 14.5582 50.8293 14.1778C50.5974 13.7974 50.2581 13.4958 49.8553 13.3118C49.4525 13.1279 49.0044 13.07 48.5687 13.1456C48.1331 13.2212 47.7298 13.4268 47.4106 13.736C47.0915 14.0453 46.8712 14.444 46.7779 14.8809C46.6847 15.3177 46.7228 15.7728 46.8875 16.1875C47.0521 16.6023 47.3357 16.9578 47.7017 17.2083C48.0677 17.4588 48.4996 17.593 48.9415 17.5933C49.23 17.6143 49.5196 17.5739 49.7916 17.4748C50.0636 17.3756 50.312 17.2198 50.5208 17.0175C50.7295 16.8152 50.894 16.5709 51.0036 16.3003C51.1133 16.0297 51.1654 15.7389 51.1569 15.4467Z" fill="#737680"/>
<path d="M55.3846 15.6334C55.3846 14.6638 55.669 13.7161 56.202 12.9101C56.7349 12.104 57.4923 11.476 58.3783 11.1055C59.2644 10.7348 60.2392 10.6383 61.1796 10.8282C62.1199 11.018 62.9834 11.4856 63.6607 12.1718C64.3382 12.8581 64.799 13.7321 64.9849 14.6831C65.1709 15.6343 65.0736 16.6198 64.7054 17.515C64.3372 18.4102 63.7145 19.1748 62.9164 19.7121C62.1183 20.2493 61.1804 20.5352 60.2215 20.5334C59.5838 20.5396 58.9513 20.4171 58.3611 20.1729C57.7708 19.9287 57.2347 19.5679 56.7842 19.1115C56.3337 18.6551 55.9779 18.1124 55.7375 17.5151C55.4972 16.9179 55.3772 16.2781 55.3846 15.6334ZM62.3261 15.6334C62.3152 15.2147 62.1823 14.8085 61.9442 14.4658C61.7059 14.1231 61.3731 13.8591 60.9871 13.7069C60.6012 13.5546 60.1794 13.5209 59.7747 13.6101C59.3698 13.6991 59.0001 13.9071 58.7116 14.2077C58.4232 14.5083 58.2289 14.8884 58.1531 15.3002C58.0774 15.7119 58.1235 16.1372 58.2856 16.5225C58.4478 16.908 58.7189 17.2364 59.0649 17.4668C59.411 17.697 59.8165 17.819 60.2308 17.8174C60.5125 17.8229 60.7924 17.7697 61.0529 17.6608C61.3134 17.5521 61.5489 17.3902 61.7447 17.1852C61.9405 16.9802 62.0923 16.7366 62.1908 16.4696C62.2892 16.2026 62.3321 15.9179 62.3169 15.6334H62.3261Z" fill="#737680"/>
<path d="M66.3416 8.54C66.3416 8.21142 66.4379 7.89021 66.6185 7.61701C66.799 7.3438 67.0556 7.13086 67.3558 7.00512C67.6561 6.87938 67.9865 6.84648 68.3052 6.91058C68.6239 6.97469 68.9167 7.13291 69.1464 7.36526C69.3763 7.59759 69.5327 7.89362 69.5961 8.21588C69.6595 8.53815 69.627 8.87219 69.5026 9.17576C69.3783 9.4793 69.1676 9.73877 68.8975 9.92133C68.6273 10.1039 68.3096 10.2013 67.9846 10.2013C67.5503 10.1965 67.1352 10.0199 66.8281 9.70937C66.521 9.39885 66.3464 8.9791 66.3416 8.54ZM66.6092 11.0133H69.3785V20.2533H66.6092V11.0133Z" fill="#737680"/>
<path d="M81.2308 15.6333C81.2618 16.2478 81.1723 16.8624 80.9675 17.4418C80.7627 18.0212 80.4466 18.554 80.0373 19.0095C79.6281 19.4648 79.1339 19.834 78.583 20.0955C78.0322 20.357 77.4356 20.5058 76.8277 20.5333C76.3118 20.568 75.7948 20.4844 75.3153 20.2889C74.8358 20.0933 74.4062 19.7908 74.0585 19.404V23.968H71.2892V11.0133H74.0585V11.8813C74.4067 11.4956 74.8366 11.1944 75.3162 11.0004C75.7957 10.8065 76.3124 10.7247 76.8277 10.7613C77.4332 10.7888 78.0273 10.9368 78.5764 11.1965C79.1253 11.4563 79.6183 11.8228 80.0272 12.2753C80.436 12.7277 80.7528 13.257 80.9593 13.8332C81.1658 14.4094 81.258 15.021 81.2308 15.6333ZM78.4616 15.6333C78.4507 15.1998 78.3134 14.7792 78.0671 14.4243C77.8208 14.0692 77.4764 13.7957 77.0769 13.6378C76.6775 13.4799 76.2408 13.4447 75.8217 13.5368C75.4027 13.6287 75.0197 13.8437 74.721 14.1548C74.4222 14.4659 74.2208 14.8592 74.1422 15.2855C74.0636 15.7118 74.1112 16.1521 74.279 16.5511C74.4467 16.9502 74.7273 17.2903 75.0855 17.5288C75.4436 17.7673 75.8635 17.8937 76.2923 17.892C76.586 17.9046 76.8791 17.8543 77.1523 17.7443C77.4254 17.6344 77.6725 17.4672 77.8773 17.254C78.0822 17.0407 78.2401 16.7861 78.3408 16.5068C78.4414 16.2275 78.4826 15.9298 78.4616 15.6333Z" fill="#737680"/>
<path d="M89.6585 17.4813C89.6585 19.6093 87.8123 20.5147 85.8554 20.5147C85.0572 20.5873 84.2559 20.4162 83.5549 20.0235C82.8539 19.6309 82.2855 19.0347 81.9231 18.312L84.3046 16.9493C84.399 17.2823 84.6035 17.5725 84.8841 17.7713C85.1648 17.9701 85.5044 18.0654 85.8462 18.0413C86.5016 18.0413 86.8339 17.836 86.8339 17.4627C86.8339 16.4453 82.3385 16.9867 82.3385 13.7853C82.3385 11.7693 84.0185 10.7613 85.92 10.7613C86.6428 10.7286 87.3609 10.8944 87.998 11.2412C88.6351 11.5879 89.1674 12.1026 89.5385 12.7307L87.1569 14C87.0517 13.7592 86.8798 13.5543 86.662 13.4103C86.444 13.2662 86.1896 13.1889 85.9292 13.188C85.4492 13.188 85.1631 13.3747 85.1631 13.7013C85.1631 14.7653 89.6585 14.0653 89.6585 17.4813Z" fill="#737680"/>
<path d="M99.6923 11.0133V20.2533H96.9231V19.3853C96.6083 19.7695 96.2086 20.0735 95.7572 20.273C95.3049 20.4724 94.8129 20.5616 94.32 20.5333C92.4738 20.5333 90.8954 19.1986 90.8954 16.7066V11.0133H93.6646V16.2866C93.6425 16.5071 93.6683 16.7297 93.7403 16.9391C93.8123 17.1485 93.9277 17.3396 94.0791 17.4994C94.2314 17.6591 94.416 17.7836 94.62 17.8643C94.824 17.945 95.0428 17.9799 95.2615 17.9666C96.2585 17.9666 96.96 17.3693 96.96 16.1V11.0133H99.6923Z" fill="#737680"/>
<path d="M115.385 14.5787V20.2533H112.615V14.8213C112.615 13.888 112.182 13.3093 111.305 13.3093C110.428 13.3093 109.874 13.9533 109.874 15.0453V20.2533H107.105V14.8213C107.105 13.888 106.671 13.3093 105.794 13.3093C104.917 13.3093 104.363 13.9533 104.363 15.0453V20.2533H101.594V11.0133H104.363V11.8627C104.65 11.4875 105.024 11.1903 105.453 10.998C105.882 10.8058 106.351 10.7244 106.818 10.7613C107.286 10.7367 107.754 10.8355 108.173 11.0482C108.592 11.2609 108.949 11.5802 109.209 11.9747C109.514 11.5626 109.916 11.2351 110.38 11.0229C110.842 10.8107 111.352 10.7207 111.858 10.7613C114.018 10.7613 115.385 12.2733 115.385 14.5787Z" fill="#737680"/>
<path d="M12.4155 4.34002V0.373352H0.0462036V27.6267H12.4155V23.66C9.88164 23.66 7.45154 22.6423 5.65984 20.8307C3.86815 19.0191 2.86159 16.562 2.86159 14C2.86159 11.438 3.86815 8.98097 5.65984 7.16937C7.45154 5.35777 9.88164 4.34002 12.4155 4.34002Z" fill="#737680"/>
<path d="M12.4154 4.34003V23.66C14.9492 23.66 17.3793 22.6423 19.1709 20.8307C20.9626 19.0191 21.9692 16.562 21.9692 14C21.9692 11.438 20.9626 8.98098 19.1709 7.16938C17.3793 5.35778 14.9492 4.34003 12.4154 4.34003Z" fill="#737680"/>
<path d="M117.711 10.9573C118.832 10.9573 119.742 10.0381 119.742 8.90404C119.742 7.77001 118.832 6.85071 117.711 6.85071C116.589 6.85071 115.68 7.77001 115.68 8.90404C115.68 10.0381 116.589 10.9573 117.711 10.9573Z" fill="#737680"/>
</svg>
