<svg width="120" height="25" viewBox="0 0 120 25" fill="none" xmlns="http://www.w3.org/2000/svg">
<path d="M18.0167 11.0455C17.6823 11.386 17.4263 11.7969 17.2667 12.2488C17.1072 12.7009 17.0482 13.183 17.0938 13.6607L17.0779 13.6447C17.1248 14.2071 17.0499 14.773 16.8584 15.303C16.6668 15.833 16.3632 16.3144 15.9689 16.7135C15.5745 17.1125 15.0988 17.4197 14.575 17.6136C14.0512 17.8074 13.4919 17.8832 12.9361 17.8357L12.952 17.8518C12.2873 17.7892 11.6196 17.9355 11.04 18.271C10.4604 18.6064 9.99728 19.1146 9.71352 19.7262C9.42984 20.3378 9.33949 21.023 9.45472 21.6885C9.56996 22.3539 9.88522 22.9672 10.3575 23.4447C10.8299 23.9222 11.4362 24.2407 12.0939 24.3567C12.7517 24.4728 13.4288 24.3807 14.0329 24.093C14.637 23.8055 15.1388 23.3363 15.4698 22.7495C15.8008 22.1627 15.9448 21.487 15.8823 20.8143L15.8991 20.8304C15.8522 20.268 15.9271 19.7021 16.1187 19.1721C16.3103 18.642 16.6138 18.1606 17.0082 17.7615C17.4025 17.3625 17.8782 17.0554 18.402 16.8615C18.9258 16.6677 19.4851 16.5918 20.0408 16.6393L20.0241 16.6232C20.5672 16.6727 21.1137 16.5826 21.6132 16.3613C22.1127 16.14 22.5488 15.7948 22.8813 15.3575C23.2139 14.9203 23.4319 14.4051 23.5153 13.8599C23.5987 13.3147 23.5447 12.757 23.3582 12.2385C23.1719 11.7199 22.8593 11.2574 22.4492 10.8938C22.0392 10.5301 21.545 10.2772 21.0126 10.1581C20.4802 10.0392 19.9268 10.0581 19.4035 10.2133C18.8803 10.3684 18.4042 10.6547 18.0194 11.0455H18.0167Z" fill="#737680"/>
<path d="M11.5077 15.7465L11.4909 15.7304C11.9633 15.7785 12.4403 15.7198 12.8875 15.5586C13.3347 15.3973 13.7409 15.1376 14.0767 14.7981C14.4126 14.4585 14.6696 14.0476 14.8293 13.5952C14.989 13.1428 15.0473 12.6602 15 12.1822L15.0168 12.1982C14.9699 11.6358 15.0449 11.0699 15.2364 10.5398C15.428 10.0098 15.7315 9.52851 16.1259 9.1294C16.5202 8.73035 16.9959 8.42319 17.5198 8.22935C18.0435 8.03552 18.6029 7.95969 19.1586 8.00717L19.1418 7.99109C19.8067 8.05427 20.4746 7.90838 21.0545 7.57333C21.6344 7.23827 22.0979 6.73035 22.3821 6.11886C22.6663 5.50738 22.7571 4.82209 22.6421 4.15645C22.5272 3.49082 22.2122 2.87726 21.7401 2.39946C21.2678 1.92167 20.6615 1.60288 20.0037 1.48661C19.3459 1.37034 18.6687 1.46222 18.0644 1.74974C17.4601 2.03725 16.9582 2.5064 16.627 3.09319C16.2959 3.67998 16.1518 4.35584 16.2142 5.02859L16.1983 5.01163C16.2454 5.57403 16.1706 6.14005 15.979 6.67016C15.7875 7.20026 15.484 7.68168 15.0896 8.08078C14.6952 8.47989 14.2194 8.78706 13.6956 8.98083C13.1717 9.17458 12.6123 9.25029 12.0565 9.2027L12.0724 9.21967C11.6001 9.17154 11.1231 9.2302 10.6758 9.39145C10.2286 9.55261 9.82248 9.81243 9.48665 10.152C9.15083 10.4915 8.8938 10.9024 8.73408 11.3548C8.57439 11.8073 8.51606 12.2898 8.5633 12.7679L8.54742 12.7518C8.59417 13.3141 8.51913 13.88 8.32753 14.41C8.13591 14.9399 7.83235 15.4213 7.43802 15.8203C7.04367 16.2193 6.56805 16.5265 6.04432 16.7204C5.52059 16.9142 4.96137 16.9902 4.40565 16.9429L4.42153 16.959C3.7567 16.8957 3.08878 17.0416 2.5089 17.3767C1.92901 17.7118 1.46538 18.2197 1.18125 18.8312C0.897116 19.4427 0.806308 20.128 0.921213 20.7936C1.03612 21.4592 1.35116 22.0728 1.82333 22.5506C2.29551 23.0284 2.90185 23.3472 3.55965 23.4634C4.21745 23.5797 4.89469 23.4878 5.49898 23.2003C6.10328 22.9128 6.60522 22.4437 6.93633 21.8569C7.26744 21.27 7.41162 20.5942 7.34918 19.9215L7.36595 19.9375C7.31903 19.3751 7.39397 18.8092 7.58552 18.2791C7.77707 17.7491 8.08063 17.2678 8.475 16.8687C8.86936 16.4697 9.34504 16.1624 9.86889 15.9687C10.3927 15.7748 10.952 15.699 11.5077 15.7465Z" fill="#737680"/>
<path d="M5.59415 13.9544C5.92858 13.6141 6.18463 13.2032 6.34401 12.7511C6.5034 12.2991 6.5622 11.8169 6.51621 11.3393L6.53298 11.3553C6.48603 10.7928 6.56099 10.2267 6.75265 9.6965C6.9443 9.16632 7.24803 8.68489 7.6426 8.28579C8.03717 7.88669 8.51308 7.57956 9.03707 7.38585C9.5611 7.19214 10.1206 7.11652 10.6765 7.16427L10.6597 7.14819C11.3243 7.2112 11.992 7.06523 12.5716 6.73019C13.1512 6.39517 13.6146 5.88737 13.8986 5.27608C14.1825 4.66478 14.2732 3.97973 14.1583 3.31435C14.0435 2.64896 13.7285 2.03564 13.2565 1.55802C12.7845 1.08039 12.1784 0.761714 11.5208 0.645443C10.8633 0.529172 10.1863 0.620967 9.58219 0.908311C8.97804 1.19565 8.47626 1.66455 8.14517 2.25107C7.81408 2.83759 7.66983 3.51318 7.7321 4.18569L7.71621 4.16962C7.76312 4.73199 7.68819 5.29794 7.49663 5.82798C7.30508 6.35802 7.00153 6.83936 6.60715 7.23844C6.21278 7.63751 5.73709 7.94468 5.21329 8.13851C4.68949 8.33234 4.1302 8.40817 3.57445 8.36069L3.59033 8.37677C3.0473 8.32749 2.50077 8.41771 2.00137 8.63907C1.50198 8.86043 1.06588 9.20578 0.733489 9.6431C0.401097 10.0803 0.183167 10.5955 0.0998949 11.1407C0.0166225 11.686 0.070701 12.2436 0.25712 12.762C0.443539 13.2805 0.756267 13.7429 1.16632 14.1065C1.57638 14.4702 2.0705 14.7231 2.60289 14.842C3.13528 14.9609 3.68871 14.9419 4.21192 14.7868C4.73512 14.6316 5.21116 14.3453 5.59591 13.9544H5.59415Z" fill="#737680"/>
<path d="M32.9268 5.04913H35.5473V17.9536H32.9268V5.04913Z" fill="#737680"/>
<path d="M37.0315 13.5348C37.0279 12.6075 37.2962 11.6998 37.8028 10.927C38.3092 10.1541 39.031 9.55071 39.8766 9.19321C40.7223 8.83579 41.6537 8.74034 42.553 8.91899C43.4523 9.09759 44.279 9.54232 44.9283 10.1968C45.5776 10.8512 46.0204 11.6859 46.2006 12.5952C46.3807 13.5045 46.2901 14.4474 45.9403 15.3045C45.5904 16.1616 44.997 16.8945 44.2353 17.41C43.4735 17.9256 42.5777 18.2009 41.6612 18.2009C41.0529 18.2079 40.4492 18.0921 39.8856 17.8604C39.322 17.6286 38.8097 17.2854 38.3787 16.851C37.9476 16.4166 37.6064 15.8995 37.3752 15.3302C37.1438 14.7608 37.027 14.1504 37.0315 13.5348ZM43.6703 13.5348C43.6594 13.1351 43.5322 12.7475 43.3048 12.4204C43.0774 12.0935 42.7597 11.8415 42.3916 11.6962C42.0234 11.5509 41.6211 11.5186 41.2349 11.6034C40.8487 11.6882 40.4958 11.8862 40.2202 12.1729C39.9448 12.4595 39.7588 12.8221 39.6857 13.2151C39.6126 13.608 39.6557 14.0141 39.8095 14.3825C39.9633 14.7508 40.2209 15.0652 40.5502 15.2862C40.8796 15.5071 41.266 15.625 41.6612 15.625C41.9318 15.6323 42.201 15.5828 42.4518 15.4795C42.7026 15.3763 42.9296 15.2217 43.1183 15.0254C43.3071 14.8289 43.4536 14.5951 43.5486 14.3386C43.6436 14.082 43.6851 13.8084 43.6703 13.5348Z" fill="#737680"/>
<path d="M56.7353 9.1152V17.5081C56.7353 20.4777 54.4465 21.7331 52.1232 21.7331C51.3052 21.795 50.4862 21.6278 49.7559 21.2498C49.0256 20.8718 48.4123 20.2976 47.9832 19.5902L50.2191 18.2822C50.3995 18.6509 50.6868 18.9551 51.0427 19.1541C51.3986 19.3531 51.806 19.4373 52.2106 19.3956C52.4691 19.4318 52.7324 19.4088 52.9809 19.3281C53.2294 19.2475 53.4569 19.1114 53.6464 18.9298C53.836 18.7482 53.9827 18.5259 54.0758 18.2791C54.169 18.0324 54.206 17.7677 54.1844 17.5045V16.6964C53.8775 17.0764 53.4869 17.3782 53.044 17.5778C52.6009 17.7773 52.1179 17.869 51.6335 17.8456C50.481 17.8088 49.3879 17.3197 48.5854 16.4816C47.783 15.6437 47.3344 14.5227 47.3344 13.3558C47.3344 12.189 47.783 11.068 48.5854 10.23C49.3879 9.39198 50.481 8.90287 51.6335 8.8661C52.1179 8.84257 52.6009 8.9343 53.044 9.13386C53.4869 9.33341 53.8775 9.63529 54.1844 10.0152V9.11341L56.7353 9.1152ZM54.1853 13.3572C54.2029 12.9298 54.0937 12.5069 53.8718 12.1429C53.6499 11.7788 53.3254 11.4903 52.94 11.3145C52.5547 11.1386 52.1261 11.0835 51.7096 11.1562C51.293 11.2289 50.9075 11.426 50.6027 11.7223C50.2978 12.0186 50.0875 12.4004 49.9989 12.8186C49.9103 13.2369 49.9473 13.6723 50.1054 14.069C50.2634 14.4657 50.5352 14.8056 50.8856 15.0447C51.2362 15.2838 51.6493 15.4113 52.0721 15.4107C52.3474 15.4302 52.6237 15.3911 52.8832 15.2959C53.1427 15.2007 53.3796 15.0516 53.5787 14.8581C53.7777 14.6647 53.9346 14.4312 54.0391 14.1726C54.1436 13.9141 54.1933 13.6364 54.1853 13.3572Z" fill="#737680"/>
<path d="M58.2194 13.5348C58.2157 12.6075 58.4841 11.6998 58.9906 10.927C59.4971 10.1541 60.2189 9.55071 61.0645 9.19321C61.9102 8.83579 62.8416 8.74034 63.7409 8.91899C64.6402 9.09759 65.4668 9.54232 66.1162 10.1968C66.7655 10.8512 67.2082 11.6859 67.3884 12.5952C67.5686 13.5045 67.478 14.4474 67.1281 15.3045C66.7783 16.1616 66.1849 16.8945 65.4232 17.41C64.6613 17.9256 63.7656 18.2009 62.8491 18.2009C62.2408 18.2079 61.6371 18.0921 61.0735 17.8604C60.5099 17.6286 59.9976 17.2854 59.5665 16.851C59.1354 16.4166 58.7943 15.8995 58.563 15.3302C58.3317 14.7608 58.2149 14.1504 58.2194 13.5348ZM64.8582 13.5348C64.8472 13.1351 64.7201 12.7475 64.4927 12.4204C64.2652 12.0935 63.9476 11.8415 63.5795 11.6962C63.2113 11.5509 62.8089 11.5186 62.4228 11.6034C62.0366 11.6882 61.6837 11.8862 61.4081 12.1729C61.1326 12.4595 60.9466 12.8221 60.8736 13.2151C60.8005 13.608 60.8436 14.0141 60.9974 14.3825C61.1512 14.7508 61.4088 15.0652 61.7381 15.2862C62.0675 15.5071 62.4539 15.625 62.8491 15.625C63.1197 15.6323 63.3889 15.5828 63.6397 15.4795C63.8905 15.3763 64.1175 15.2217 64.3062 15.0254C64.4949 14.8289 64.6415 14.5951 64.7364 14.3386C64.8314 14.082 64.8729 13.8084 64.8582 13.5348Z" fill="#737680"/>
<path d="M68.7009 6.74641C68.7009 6.43172 68.7931 6.1241 68.9659 5.86245C69.1388 5.60081 69.3843 5.39687 69.6716 5.27644C69.9589 5.15602 70.275 5.12452 70.5801 5.18591C70.8851 5.2473 71.1653 5.39884 71.3851 5.62135C71.605 5.84386 71.7548 6.12736 71.8155 6.43601C71.8761 6.74464 71.845 7.06455 71.726 7.35528C71.607 7.64602 71.4054 7.89451 71.1468 8.06934C70.8883 8.24417 70.5843 8.33748 70.2733 8.33748C69.8576 8.33329 69.46 8.16432 69.166 7.86684C68.8721 7.56935 68.7051 7.16709 68.7009 6.74641ZM68.9656 9.11517H71.5871V17.9545H68.9621L68.9656 9.11517Z" fill="#737680"/>
<path d="M82.9023 13.5348C82.9326 14.119 82.8485 14.7035 82.6547 15.2547C82.4611 15.8058 82.1615 16.3128 81.7735 16.7464C81.3855 17.1801 80.9166 17.5318 80.3938 17.7814C79.8709 18.0311 79.3045 18.1736 78.727 18.2009C78.2414 18.2278 77.7559 18.1448 77.3059 17.9583C76.8558 17.7718 76.4524 17.4862 76.125 17.1223V21.4893H73.5044V9.1152H76.125V9.94555C76.4526 9.58198 76.8561 9.29671 77.3061 9.11028C77.7561 8.9239 78.2415 8.84111 78.727 8.8679C79.3046 8.89511 79.8712 9.03761 80.3942 9.28725C80.917 9.53689 81.3861 9.88868 81.7742 10.3224C82.1622 10.7562 82.4616 11.2633 82.6553 11.8147C82.8489 12.366 82.9329 12.9506 82.9023 13.5348ZM80.2817 13.5348C80.2715 13.1212 80.1409 12.7197 79.9063 12.3808C79.6717 12.0418 79.3435 11.7805 78.9628 11.6293C78.5822 11.4781 78.1659 11.444 77.7661 11.5311C77.3663 11.6181 77.0007 11.8227 76.7153 12.1189C76.4297 12.4152 76.237 12.7901 76.161 13.1967C76.0849 13.6033 76.1292 14.0236 76.288 14.4048C76.447 14.7862 76.7134 15.1115 77.0542 15.3404C77.395 15.5691 77.7948 15.6912 78.2038 15.6911C78.4846 15.7038 78.7648 15.6562 79.0261 15.5516C79.2874 15.447 79.5239 15.2876 79.7201 15.084C79.9164 14.8805 80.0678 14.6372 80.1646 14.3702C80.2614 14.1032 80.3013 13.8186 80.2817 13.5348Z" fill="#737680"/>
<path d="M90.9892 15.3018C90.9892 17.3348 89.243 18.2009 87.3565 18.2009C86.5943 18.2707 85.8289 18.1076 85.1593 17.7326C84.4897 17.3576 83.9466 16.7879 83.6003 16.0973L85.8706 14.7893C85.9625 15.1085 86.1598 15.3862 86.4295 15.576C86.6993 15.7658 87.0253 15.8562 87.353 15.8321C87.9812 15.8321 88.2962 15.6375 88.2962 15.2848C88.2962 14.3116 83.9983 14.825 83.9983 11.767C83.9983 9.83929 85.6059 8.86784 87.4227 8.86784C88.1056 8.84597 88.7815 9.00991 89.3806 9.3425C89.9797 9.67509 90.48 10.1643 90.8286 10.7589L88.5927 11.9786C88.4948 11.7471 88.3315 11.5498 88.1234 11.4115C87.9153 11.2732 87.6716 11.2 87.4227 11.2009C86.9683 11.2009 86.6886 11.3795 86.6886 11.6955C86.6921 12.7036 90.9892 12.0313 90.9892 15.3018Z" fill="#737680"/>
<path d="M100.562 9.11517V17.9545H97.9412V17.1232C97.6386 17.49 97.2547 17.779 96.8206 17.9665C96.3865 18.154 95.9153 18.2346 95.4441 18.2018C93.6794 18.2018 92.1794 16.9295 92.1794 14.5411V9.11517H94.8V14.1527C94.778 14.3632 94.8018 14.576 94.8697 14.7763C94.9368 14.9767 95.0471 15.1596 95.1918 15.3127C95.3365 15.4656 95.5121 15.5848 95.7071 15.662C95.9012 15.7393 96.1103 15.7727 96.3194 15.7598C97.2803 15.7598 97.9439 15.1946 97.9439 13.9393V9.11785L100.562 9.11517Z" fill="#737680"/>
<path d="M115.588 12.5268V17.9536H112.968V12.7562C112.968 11.8723 112.549 11.3071 111.71 11.3071C110.837 11.3071 110.347 11.9259 110.347 12.9687V17.9536H107.727V12.7562C107.727 11.8723 107.308 11.3071 106.469 11.3071C105.596 11.3071 105.107 11.9259 105.107 12.9687V17.9536H102.486V9.11428H105.107V9.92678C105.379 9.56633 105.735 9.28044 106.144 9.09535C106.553 8.91019 107.001 8.83167 107.448 8.86694C107.896 8.84474 108.342 8.94053 108.744 9.14481C109.144 9.34919 109.486 9.65517 109.736 10.033C110.026 9.63776 110.411 9.32348 110.854 9.11955C111.297 8.91564 111.784 8.82872 112.269 8.86694C114.274 8.86783 115.588 10.317 115.588 12.5268Z" fill="#737680"/>
<path d="M117.805 9.06072C118.879 9.06072 119.749 8.17967 119.749 7.09286C119.749 6.00604 118.879 5.125 117.805 5.125C116.731 5.125 115.86 6.00604 115.86 7.09286C115.86 8.17967 116.731 9.06072 117.805 9.06072Z" fill="#737680"/>
</svg>
