<svg width="120" height="24" viewBox="0 0 120 24" fill="none" xmlns="http://www.w3.org/2000/svg">
<path d="M38.522 19.39C37.9172 19.4222 37.3189 19.2531 36.8237 18.91C36.6168 18.7592 36.4503 18.5611 36.3387 18.3329C36.2271 18.1046 36.1737 17.8531 36.1831 17.6V8.33C36.1781 8.29075 36.1823 8.25091 36.1954 8.21351C36.2085 8.17611 36.23 8.14214 36.2585 8.11418C36.2869 8.08621 36.3215 8.065 36.3595 8.05214C36.3975 8.03929 36.438 8.03514 36.478 8.04H38.1864C38.3797 8.04 38.4712 8.14 38.4712 8.33V16.88C38.4712 17.26 38.6441 17.45 39 17.45C39.1508 17.4561 39.3018 17.4393 39.4475 17.4C39.6508 17.4 39.7627 17.46 39.7729 17.64L39.9254 18.89C39.9327 18.9264 39.932 18.964 39.9234 19.0002C39.9146 19.0363 39.8982 19.0702 39.8751 19.0996C39.852 19.129 39.8227 19.1531 39.7893 19.1705C39.7559 19.1878 39.7191 19.1978 39.6814 19.2C39.3071 19.3215 38.9161 19.3856 38.522 19.39Z" fill="#737680"/>
<path d="M48.1322 18.32C47.2738 19.0175 46.1949 19.399 45.0813 19.399C43.9678 19.399 42.889 19.0175 42.0305 18.32C41.276 17.571 40.8527 16.5593 40.8527 15.505C40.8527 14.4507 41.276 13.439 42.0305 12.69C42.8906 11.9961 43.9688 11.6169 45.0813 11.6169C46.1939 11.6169 47.2721 11.9961 48.1322 12.69C48.8694 13.4459 49.2809 14.4527 49.2809 15.5C49.2809 16.5473 48.8694 17.5541 48.1322 18.31V18.32ZM43.6373 17C44.0357 17.3548 44.554 17.5514 45.0915 17.5514C45.6291 17.5514 46.1474 17.3548 46.5457 17C46.9064 16.5923 47.1049 16.0703 47.1049 15.53C47.1049 14.9897 46.9064 14.4676 46.5457 14.06C46.1474 13.7051 45.6291 13.5086 45.0915 13.5086C44.554 13.5086 44.0357 13.7051 43.6373 14.06C43.2768 14.4676 43.0782 14.9897 43.0782 15.53C43.0782 16.0703 43.2768 16.5923 43.6373 17Z" fill="#737680"/>
<path d="M58.6881 11.87C58.8813 11.87 58.9729 11.97 58.9729 12.16V19.33C58.9907 19.8139 58.8985 20.2957 58.7033 20.7402C58.508 21.1848 58.2145 21.581 57.844 21.9C57.0217 22.5894 55.9643 22.9468 54.8847 22.9C53.9096 22.9337 52.9475 22.6719 52.1288 22.15C51.7792 21.9242 51.4805 21.6302 51.2513 21.2861C51.0221 20.9421 50.8674 20.5554 50.7966 20.15C50.7966 19.95 50.7966 19.86 51.0712 19.86H52.7796C52.8522 19.8624 52.9224 19.8854 52.982 19.9262C53.0415 19.967 53.0878 20.0239 53.1152 20.09C53.226 20.3937 53.4469 20.6465 53.7356 20.8C54.0873 20.9785 54.4788 21.0678 54.8746 21.06C55.1133 21.0729 55.3523 21.0388 55.5776 20.9598C55.8028 20.8808 56.0098 20.7585 56.1864 20.6C56.3477 20.4342 56.4733 20.2379 56.5555 20.0231C56.6375 19.8083 56.6747 19.5793 56.6644 19.35V18.72C56.0527 19.1624 55.3082 19.3912 54.5491 19.37C54.0179 19.389 53.4881 19.3022 52.9919 19.1149C52.4956 18.9276 52.0429 18.6436 51.661 18.28C50.9278 17.5341 50.5179 16.5374 50.5179 15.5C50.5179 14.4626 50.9278 13.4659 51.661 12.72C52.0447 12.3596 52.4979 12.0783 52.994 11.8929C53.49 11.7074 54.0188 11.6214 54.5491 11.64C55.3301 11.6197 56.0946 11.8632 56.7152 12.33V12.17C56.7106 12.1317 56.7146 12.0928 56.7271 12.0562C56.7396 12.0196 56.7603 11.9863 56.7875 11.9585C56.8148 11.9307 56.848 11.9093 56.8848 11.8957C56.9215 11.8821 56.9608 11.8768 57 11.88L58.6881 11.87ZM54.7424 17.59C55.0043 17.598 55.2649 17.5493 55.5057 17.4473C55.7464 17.3454 55.9615 17.1927 56.1356 17C56.4736 16.5707 56.6571 16.043 56.6571 15.5C56.6571 14.957 56.4736 14.4293 56.1356 14C55.9621 13.8099 55.7483 13.6595 55.5093 13.5593C55.2705 13.4591 55.0121 13.4116 54.7525 13.42C54.4875 13.4118 54.2238 13.4603 53.9797 13.5622C53.7357 13.6641 53.517 13.8169 53.339 14.01C52.9644 14.4207 52.7674 14.9588 52.7898 15.51C52.7714 16.0558 52.964 16.5882 53.3288 17C53.5073 17.1926 53.726 17.345 53.97 17.4469C54.2139 17.5487 54.4774 17.5975 54.7424 17.59Z" fill="#737680"/>
<path d="M67.7492 18.32C66.889 19.0139 65.8109 19.3931 64.6983 19.3931C63.5858 19.3931 62.5076 19.0139 61.6475 18.32C60.9097 17.5624 60.4978 16.5539 60.4978 15.505C60.4978 14.456 60.9097 13.4476 61.6475 12.69C62.5084 11.9979 63.5863 11.6198 64.6983 11.6198C65.8103 11.6198 66.8882 11.9979 67.7492 12.69C68.4863 13.4459 68.8979 14.4527 68.8979 15.5C68.8979 16.5473 68.4863 17.5541 67.7492 18.31V18.32ZM63.2441 17C63.439 17.1824 63.6689 17.3249 63.9202 17.4193C64.1716 17.5137 64.4395 17.5581 64.7085 17.55C64.9757 17.5568 65.2418 17.5117 65.4913 17.4174C65.7408 17.323 65.969 17.1812 66.1627 17C66.5174 16.5896 66.7122 16.0686 66.7122 15.53C66.7122 14.9914 66.5174 14.4704 66.1627 14.06C65.969 13.8788 65.7408 13.737 65.4913 13.6426C65.2418 13.5483 64.9757 13.5032 64.7085 13.51C64.4395 13.5018 64.1716 13.5463 63.9202 13.6407C63.6689 13.7351 63.439 13.8776 63.2441 14.06C62.8894 14.4704 62.6946 14.9914 62.6946 15.53C62.6946 16.0686 62.8894 16.5896 63.2441 17Z" fill="#737680"/>
<path d="M72.5695 10.17C72.3007 10.4014 71.9556 10.5289 71.5983 10.5289C71.2411 10.5289 70.896 10.4014 70.6271 10.17C70.5053 10.0569 70.4082 9.92051 70.3418 9.76919C70.2755 9.61787 70.2412 9.45481 70.2412 9.29002C70.2412 9.12522 70.2755 8.96216 70.3418 8.81084C70.4082 8.65952 70.5053 8.52312 70.6271 8.41002C70.8988 8.18443 71.2428 8.06067 71.5983 8.06067C71.9539 8.06067 72.2979 8.18443 72.5695 8.41002C72.6914 8.52312 72.7885 8.65952 72.8549 8.81084C72.9213 8.96216 72.9554 9.12522 72.9554 9.29002C72.9554 9.45481 72.9213 9.61787 72.8549 9.76919C72.7885 9.92051 72.6914 10.0569 72.5695 10.17ZM72.7831 19.39C72.1786 19.4192 71.5813 19.2504 71.0848 18.91C70.881 18.757 70.7174 18.5582 70.6078 18.3303C70.4981 18.1024 70.4454 17.852 70.4543 17.6V12.16C70.4494 12.1208 70.4535 12.0809 70.4667 12.0435C70.4797 12.0061 70.5012 11.9722 70.5297 11.9442C70.5582 11.9162 70.5927 11.895 70.6307 11.8822C70.6687 11.8693 70.7093 11.8652 70.7492 11.87H72.4576C72.6509 11.87 72.7424 11.97 72.7424 12.16V16.88C72.7424 17.26 72.9153 17.45 73.261 17.45C73.4153 17.4555 73.5695 17.4386 73.7187 17.4C73.9221 17.4 74.0339 17.46 74.0441 17.64L74.1966 18.89C74.204 18.9265 74.2032 18.964 74.1946 19.0002C74.186 19.0363 74.1695 19.0702 74.1463 19.0996C74.1232 19.129 74.0939 19.1532 74.0606 19.1705C74.0271 19.1878 73.9903 19.1979 73.9526 19.2C73.5751 19.3223 73.1806 19.3864 72.7831 19.39Z" fill="#737680"/>
<path d="M80.4813 11.63C81.0149 11.6093 81.5474 11.6942 82.047 11.8797C82.5467 12.0652 83.0033 12.3476 83.3898 12.71C84.1089 13.4689 84.5088 14.4677 84.5088 15.505C84.5088 16.5423 84.1089 17.5411 83.3898 18.3C83.0052 18.6656 82.5491 18.9508 82.0492 19.1381C81.5492 19.3255 81.0158 19.4112 80.4813 19.39C79.7197 19.4067 78.9735 19.1784 78.3559 18.74V22.35C78.3559 22.54 78.2542 22.63 78.061 22.63H76.3525C76.3136 22.6372 76.2734 22.6349 76.2355 22.6233C76.1976 22.6118 76.1632 22.5914 76.1351 22.5638C76.107 22.5362 76.0863 22.5023 76.0746 22.4651C76.0628 22.4278 76.0605 22.3883 76.0678 22.35V14.15C76.0798 14.0698 76.0725 13.988 76.0465 13.911C76.0207 13.8341 75.9768 13.7641 75.9185 13.7068C75.8602 13.6495 75.7891 13.6064 75.7108 13.5809C75.6325 13.5554 75.5493 13.5482 75.4678 13.56H75.1322C74.9085 13.56 74.7966 13.48 74.7966 13.32V12.14C74.7913 12.067 74.8116 11.9944 74.8543 11.9344C74.8968 11.8743 74.959 11.8304 75.0305 11.81C75.3823 11.6843 75.7546 11.6233 76.1288 11.63C76.502 11.5975 76.8766 11.6753 77.2045 11.8535C77.5324 12.0317 77.7988 12.302 77.9695 12.63C78.297 12.3042 78.6888 12.0474 79.1207 11.8755C79.5525 11.7036 80.0155 11.62 80.4813 11.63ZM78.8949 17C79.0762 17.1864 79.2941 17.3347 79.5353 17.436C79.7764 17.5373 80.036 17.5895 80.2983 17.5895C80.5606 17.5895 80.8201 17.5373 81.0613 17.436C81.3025 17.3347 81.5204 17.1864 81.7017 17C82.0836 16.5811 82.2843 16.0322 82.261 15.47C82.2876 14.9073 82.0865 14.3572 81.7017 13.94C81.5204 13.7537 81.3025 13.6054 81.0613 13.504C80.8201 13.4027 80.5606 13.3505 80.2983 13.3505C80.036 13.3505 79.7764 13.4027 79.5353 13.504C79.2941 13.6054 79.0762 13.7537 78.8949 13.94C78.5248 14.3646 78.3322 14.9113 78.3559 15.47C78.3353 16.0283 78.5275 16.5739 78.8949 17Z" fill="#737680"/>
<path d="M89.3085 19.39C88.3956 19.4269 87.4903 19.2122 86.6949 18.77C86.3757 18.581 86.104 18.3237 85.8998 18.0173C85.6956 17.7109 85.5641 17.3632 85.5153 17C85.5153 16.8 85.5864 16.7 85.8102 16.7H87.3051C87.3762 16.7027 87.4451 16.7247 87.5043 16.7635C87.5636 16.8024 87.6108 16.8565 87.6407 16.92C87.8542 17.46 88.4136 17.73 89.3085 17.73C89.6206 17.744 89.9315 17.6822 90.2136 17.55C90.3109 17.5068 90.3945 17.4384 90.4554 17.3521C90.5163 17.2658 90.5522 17.1648 90.5593 17.06C90.5593 16.8 90.3966 16.62 90.0712 16.5C89.6852 16.3737 89.2861 16.2898 88.8814 16.25C88.4018 16.1966 87.9262 16.1131 87.4576 16C87.0018 15.8986 86.5874 15.6652 86.2678 15.33C86.0796 15.1022 85.941 14.8387 85.8607 14.556C85.7805 14.2733 85.7601 13.9773 85.8012 13.6866C85.8422 13.3958 85.9436 13.1164 86.0991 12.8659C86.2546 12.6153 86.4608 12.3989 86.7051 12.23C87.438 11.7709 88.298 11.5472 89.1661 11.59C90.0064 11.5621 90.838 11.7665 91.5661 12.18C91.8595 12.3435 92.1122 12.5692 92.3057 12.8408C92.4993 13.1124 92.6287 13.423 92.6848 13.75C92.6848 13.95 92.5932 14.05 92.4102 14.05H90.9051C90.8417 14.0537 90.7787 14.0385 90.7243 14.0064C90.6698 13.9743 90.6264 13.9267 90.6 13.87C90.4994 13.6332 90.3101 13.4434 90.0712 13.34C89.8017 13.2014 89.5007 13.1325 89.1966 13.14C88.8984 13.1241 88.6011 13.1826 88.3322 13.31C88.2374 13.346 88.1558 13.409 88.0978 13.491C88.0397 13.573 88.0081 13.6701 88.0068 13.77C88.0133 13.9068 88.0641 14.0379 88.152 14.1441C88.2399 14.2502 88.3601 14.3259 88.4949 14.36C88.8854 14.5047 89.2914 14.6054 89.7051 14.66C90.1807 14.7216 90.6526 14.8083 91.1187 14.92C91.5743 15.0215 91.9889 15.2548 92.3085 15.59C92.4794 15.7747 92.6115 15.9908 92.6971 16.226C92.7826 16.4611 92.8199 16.7106 92.8068 16.96C92.8155 17.3057 92.733 17.6477 92.5673 17.9527C92.4015 18.2576 92.1582 18.5151 91.861 18.7C91.1012 19.1797 90.2108 19.4203 89.3085 19.39Z" fill="#737680"/>
<path d="M103.556 18.89C103.562 18.9255 103.56 18.9618 103.552 18.9967C103.543 19.0316 103.527 19.0645 103.505 19.0934C103.484 19.1222 103.456 19.1466 103.425 19.1649C103.393 19.1832 103.359 19.1951 103.322 19.2C102.951 19.3192 102.563 19.3832 102.173 19.39C101.786 19.4294 101.396 19.3699 101.04 19.2175C100.683 19.0651 100.373 18.8249 100.139 18.52C99.4206 19.1273 98.4918 19.4389 97.5458 19.39C97.1065 19.4099 96.6678 19.3392 96.258 19.1825C95.8482 19.0258 95.4763 18.7865 95.1661 18.48C94.8581 18.1589 94.6191 17.7799 94.4636 17.3658C94.3081 16.9516 94.2392 16.5109 94.261 16.07V12.16C94.261 11.97 94.3526 11.87 94.5458 11.87H96.2543C96.4475 11.87 96.539 11.97 96.539 12.16V15.77C96.5204 16.2198 96.6768 16.6596 96.9763 17C97.1258 17.1559 97.3075 17.2786 97.5092 17.3596C97.7109 17.4407 97.928 17.4784 98.1458 17.47C98.3686 17.4796 98.5912 17.4456 98.8007 17.3701C99.0102 17.2946 99.2023 17.179 99.3661 17.03C99.5211 16.873 99.6416 16.6863 99.7203 16.4816C99.799 16.277 99.8342 16.0586 99.8237 15.84V12.16C99.8237 11.97 99.9153 11.87 100.108 11.87H101.837C102.031 11.87 102.122 11.97 102.122 12.16V16.87C102.122 17.26 102.295 17.45 102.631 17.45C102.788 17.456 102.946 17.4391 103.098 17.4C103.137 17.3894 103.177 17.3875 103.216 17.3944C103.256 17.4014 103.293 17.417 103.325 17.4401C103.358 17.4632 103.384 17.4931 103.402 17.5278C103.422 17.5624 103.432 17.6008 103.434 17.64L103.556 18.89Z" fill="#737680"/>
<path d="M119.715 18.89C119.724 18.9258 119.725 18.9631 119.718 18.9993C119.71 19.0355 119.695 19.0697 119.673 19.0993C119.65 19.1289 119.622 19.1533 119.588 19.1707C119.556 19.1881 119.519 19.1981 119.481 19.2C119.103 19.3209 118.71 19.3849 118.312 19.39C117.707 19.4207 117.11 19.2517 116.614 18.91C116.399 18.7636 116.225 18.5675 116.106 18.339C115.987 18.1104 115.927 17.8566 115.932 17.6V15.25C115.954 14.8016 115.801 14.3619 115.505 14.02C115.363 13.8637 115.186 13.7405 114.99 13.6592C114.792 13.5779 114.58 13.5406 114.366 13.55C114.174 13.5429 113.983 13.5787 113.806 13.655C113.63 13.7312 113.473 13.8457 113.349 13.99C113.081 14.3251 112.943 14.7438 112.963 15.17V18.86C112.963 19.05 112.871 19.15 112.678 19.15H110.959C110.92 19.1549 110.879 19.1507 110.84 19.1379C110.803 19.125 110.768 19.1038 110.74 19.0758C110.711 19.0479 110.69 19.0139 110.677 18.9765C110.663 18.9391 110.659 18.8992 110.664 18.86V15.25C110.687 14.8065 110.545 14.3699 110.268 14.02C110.144 13.873 109.988 13.7547 109.812 13.6735C109.637 13.5922 109.445 13.5501 109.251 13.55C109.043 13.5418 108.837 13.5767 108.644 13.6525C108.451 13.7284 108.277 13.8434 108.132 13.99C107.841 14.3144 107.692 14.7381 107.715 15.17V18.86C107.72 18.8992 107.716 18.9391 107.703 18.9765C107.69 19.0139 107.669 19.0479 107.64 19.0758C107.612 19.1038 107.577 19.125 107.538 19.1379C107.501 19.1507 107.46 19.1549 107.42 19.15H105.763C105.57 19.15 105.478 19.05 105.478 18.86V14.15C105.49 14.0698 105.483 13.988 105.457 13.911C105.431 13.834 105.387 13.7641 105.329 13.7068C105.271 13.6495 105.199 13.6064 105.121 13.5809C105.043 13.5554 104.959 13.5482 104.878 13.56H104.542C104.319 13.56 104.207 13.48 104.207 13.32V12.14C104.202 12.067 104.222 11.9944 104.265 11.9343C104.307 11.8743 104.37 11.8304 104.441 11.81C104.793 11.6843 105.165 11.6232 105.539 11.63C105.898 11.5999 106.259 11.6703 106.579 11.8331C106.9 11.9959 107.166 12.2444 107.349 12.55C107.692 12.2302 108.099 11.9835 108.543 11.8252C108.987 11.6669 109.46 11.6005 109.932 11.63C110.391 11.608 110.847 11.6925 111.266 11.8767C111.684 12.0609 112.054 12.3395 112.342 12.69C112.679 12.3303 113.093 12.0486 113.554 11.8653C114.014 11.682 114.511 11.6016 115.007 11.63C115.45 11.6096 115.894 11.6799 116.309 11.8365C116.723 11.9932 117.101 12.2327 117.417 12.54C117.726 12.8605 117.965 13.2394 118.121 13.6536C118.276 14.0679 118.345 14.509 118.322 14.95V16.88C118.322 17.26 118.495 17.45 118.82 17.45C118.978 17.4572 119.136 17.4404 119.288 17.4C119.499 17.4 119.611 17.48 119.624 17.64L119.715 18.89Z" fill="#737680"/>
<path d="M0.467731 10.57C1.21801 7.60469 2.95562 4.97144 5.4039 3.08954C7.85219 1.20764 10.8704 0.185303 13.9779 0.185303C17.0854 0.185303 20.1036 1.20764 22.5519 3.08954C25.0002 4.97144 26.7378 7.60469 27.4881 10.57H26.2677C24.2091 10.5402 22.1927 11.1452 20.5016 12.3C20.404 12.3695 20.3021 12.433 20.1966 12.49H20.0542C19.9486 12.433 19.8467 12.3695 19.7491 12.3C18.0431 11.1719 16.0338 10.5694 13.9779 10.5694C11.922 10.5694 9.91276 11.1719 8.20672 12.3C8.10912 12.3695 8.00723 12.433 7.90163 12.49H7.75926C7.65366 12.433 7.55177 12.3695 7.45417 12.3C5.76312 11.1452 3.7467 10.5402 1.68807 10.57H0.467731ZM24.0711 16.84C24.6976 16.3603 25.474 16.1093 26.2677 16.13H27.905V12.92H26.2677C24.8696 12.9034 23.5036 13.3313 22.3728 14.14C21.7365 14.6013 20.9667 14.8502 20.1762 14.8502C19.3856 14.8502 18.6159 14.6013 17.9796 14.14C16.8202 13.3464 15.4414 12.921 14.0288 12.921C12.6161 12.921 11.2373 13.3464 10.0779 14.14C9.4416 14.6013 8.67183 14.8502 7.88129 14.8502C7.09076 14.8502 6.32099 14.6013 5.68468 14.14C4.54 13.321 3.1543 12.8925 1.73892 12.92H0.0507812V16.13H1.68807C2.48181 16.1093 3.25823 16.3603 3.88468 16.84C5.04198 17.6342 6.41921 18.06 7.83044 18.06C9.24166 18.06 10.6189 17.6342 11.7762 16.84C12.4035 16.3618 13.1793 16.111 13.9728 16.13C14.7668 16.1076 15.5438 16.3588 16.1694 16.84C17.3289 17.6337 18.7076 18.0591 20.1203 18.0591C21.5329 18.0591 22.9117 17.6337 24.0711 16.84ZM24.0711 22.58C24.6976 22.1003 25.474 21.8493 26.2677 21.87H27.905V18.66H26.2677C24.8696 18.6434 23.5036 19.0713 22.3728 19.88C21.7365 20.3413 20.9667 20.5902 20.1762 20.5902C19.3856 20.5902 18.6159 20.3413 17.9796 19.88C16.8202 19.0864 15.4414 18.661 14.0288 18.661C12.6161 18.661 11.2373 19.0864 10.0779 19.88C9.4416 20.3413 8.67183 20.5902 7.88129 20.5902C7.09076 20.5902 6.32099 20.3413 5.68468 19.88C4.54 19.061 3.1543 18.6325 1.73892 18.66H0.0507812V21.87H1.68807C2.48181 21.8493 3.25823 22.1003 3.88468 22.58C5.04198 23.3742 6.41921 23.8 7.83044 23.8C9.24166 23.8 10.6189 23.3742 11.7762 22.58C12.4035 22.1018 13.1793 21.851 13.9728 21.87C14.7668 21.8476 15.5438 22.0988 16.1694 22.58C17.3289 23.3737 18.7076 23.7991 20.1203 23.7991C21.5329 23.7991 22.9117 23.3737 24.0711 22.58Z" fill="#737680"/>
</svg>
