<svg width="18" height="16" viewBox="0 0 18 16" fill="none" xmlns="http://www.w3.org/2000/svg">
<path d="M17.9727 2.7174C17.5083 3.33692 16.9469 3.87733 16.3102 4.31776C16.3102 4.47959 16.3102 4.64142 16.3102 4.81225C16.3153 7.7511 15.1414 10.5691 13.0517 12.6345C10.9619 14.6999 8.1311 15.8399 5.19393 15.7989C3.49587 15.8046 1.81955 15.4169 0.2963 14.6661C0.21416 14.6302 0.16119 14.549 0.1615 14.4593V14.3604C0.1615 14.2313 0.26611 14.1267 0.39515 14.1267C2.0643 14.0716 3.6739 13.4929 4.99622 12.4724C3.48541 12.4419 2.12607 11.5469 1.50048 10.1707C1.46889 10.0956 1.47872 10.0093 1.52645 9.9432C1.57417 9.8771 1.65288 9.8407 1.73413 9.8471C2.1933 9.8932 2.65706 9.8505 3.10008 9.7212C1.43227 9.375 0.17909 7.9904 -0.000260007 6.2957C-0.00663001 6.2144 0.0298001 6.1357 0.0958801 6.0879C0.16195 6.0402 0.24812 6.0303 0.32326 6.062C0.77082 6.2595 1.25397 6.3635 1.74312 6.3676C0.28172 5.40846 -0.34951 3.58405 0.20643 1.92622C0.26382 1.76513 0.40169 1.64612 0.56938 1.61294C0.73706 1.57975 0.90984 1.63728 1.0242 1.76439C2.99627 3.86325 5.70592 5.11396 8.5818 5.25279C8.5082 4.95885 8.472 4.65676 8.474 4.35372C8.5009 2.76472 9.4841 1.34921 10.9633 0.769872C12.4424 0.190542 14.1248 0.562032 15.2229 1.71044C15.9713 1.56785 16.6949 1.31645 17.3706 0.964212C17.4201 0.933312 17.4829 0.933312 17.5324 0.964212C17.5633 1.01373 17.5633 1.07652 17.5324 1.12604C17.2051 1.87552 16.6522 2.50412 15.9508 2.92419C16.565 2.85296 17.1684 2.70807 17.7481 2.49264C17.7969 2.45942 17.861 2.45942 17.9098 2.49264C17.9507 2.51134 17.9813 2.54711 17.9934 2.59042C18.0055 2.63373 17.9979 2.68018 17.9727 2.7174Z" fill="#2A2C1F"/>
</svg>
